<svg width="1224" height="163" viewBox="0 0 1224 163" fill="none" xmlns="http://www.w3.org/2000/svg">
<path d="M98.106 1.22222V130.778H77.3429V118.73C73.767 123.153 69.326 126.471 64.0198 128.683C58.829 130.894 53.0615 132 46.7172 132C37.8351 132 29.8182 130.021 22.6665 126.063C15.6301 122.106 10.0932 116.519 6.05593 109.302C2.01864 101.968 0 93.5873 0 84.1587C0 74.7302 2.01864 66.4074 6.05593 59.1905C10.0932 51.9735 15.6301 46.3862 22.6665 42.4286C29.8182 38.4709 37.8351 36.4921 46.7172 36.4921C52.8308 36.4921 58.4253 37.5397 63.5007 39.6349C68.5762 41.7302 72.9019 44.873 76.4777 49.0635V1.22222H98.106ZM49.3126 113.317C54.5034 113.317 59.1751 112.153 63.3277 109.825C67.4804 107.381 70.7679 103.947 73.1902 99.5238C75.6126 95.1005 76.8238 89.9788 76.8238 84.1587C76.8238 78.3386 75.6126 73.2169 73.1902 68.7936C70.7679 64.3704 67.4804 60.9947 63.3277 58.6667C59.1751 56.2222 54.5034 55 49.3126 55C44.1218 55 39.4501 56.2222 35.2974 58.6667C31.1448 60.9947 27.8573 64.3704 25.4349 68.7936C23.0125 73.2169 21.8013 78.3386 21.8013 84.1587C21.8013 89.9788 23.0125 95.1005 25.4349 99.5238C27.8573 103.947 31.1448 107.381 35.2974 109.825C39.4501 112.153 44.1218 113.317 49.3126 113.317Z" fill="white"/>
<path d="M161.178 17.6349C152.066 17.6349 147.509 22.6402 147.509 32.6508V38.2381H172.944V55.6984H148.028V130.778H126.4V32.3016C126.4 22.4074 129.284 14.5503 135.051 8.73015C140.819 2.91005 149.009 0 159.621 0C167.811 0 174.271 1.68783 179 5.06349L172.944 21.4762C169.484 18.9153 165.562 17.6349 161.178 17.6349Z" fill="white"/>
<path d="M431.811 0V129.216H410.899V117.2C407.297 121.611 402.824 124.92 397.48 127.126C392.252 129.332 386.443 130.435 380.053 130.435C371.107 130.435 363.032 128.461 355.829 124.514C348.742 120.567 343.166 114.994 339.099 107.796C335.033 100.482 333 92.1229 333 82.719C333 73.3152 335.033 65.0142 339.099 57.8162C343.166 50.6182 348.742 45.0456 355.829 41.0983C363.032 37.151 371.107 35.1774 380.053 35.1774C386.21 35.1774 391.845 36.2222 396.957 38.312C402.069 40.4017 406.426 43.5363 410.027 47.7158V0H431.811ZM382.667 111.801C387.895 111.801 392.6 110.64 396.783 108.318C400.965 105.88 404.276 102.455 406.716 98.0438C409.156 93.6321 410.376 88.5239 410.376 82.719C410.376 76.9142 409.156 71.8059 406.716 67.3942C404.276 62.9826 400.965 59.6157 396.783 57.2938C392.6 54.8558 387.895 53.6368 382.667 53.6368C377.439 53.6368 372.733 54.8558 368.551 57.2938C364.369 59.6157 361.057 62.9826 358.618 67.3942C356.178 71.8059 354.958 76.9142 354.958 82.719C354.958 88.5239 356.178 93.6321 358.618 98.0438C361.057 102.455 364.369 105.88 368.551 108.318C372.733 110.64 377.439 111.801 382.667 111.801Z" fill="white"/>
<path d="M504.573 111.975C514.68 111.975 523.103 108.609 529.842 101.875L541.343 115.284C537.277 120.276 532.049 124.05 525.659 126.604C519.269 129.158 512.066 130.435 504.05 130.435C493.826 130.435 484.822 128.403 477.038 124.34C469.254 120.276 463.213 114.646 458.914 107.448C454.731 100.134 452.64 91.8907 452.64 82.719C452.64 73.6635 454.673 65.5367 458.74 58.3387C462.922 51.0246 468.615 45.3358 475.818 41.2724C483.137 37.209 491.386 35.1774 500.564 35.1774C509.278 35.1774 517.178 37.093 524.265 40.9241C531.468 44.6392 537.161 50.0378 541.343 57.1197C545.526 64.0855 547.617 72.2703 547.617 81.6741L476.341 95.6058C478.548 100.946 482.092 105.01 486.971 107.796C491.851 110.582 497.718 111.975 504.573 111.975ZM500.564 52.5919C492.548 52.5919 486.042 55.2041 481.046 60.4284C476.167 65.6528 473.727 72.6766 473.727 81.5V81.6741L526.356 71.5737C524.846 65.885 521.767 61.2991 517.12 57.8162C512.589 54.3333 507.07 52.5919 500.564 52.5919Z" fill="white"/>
<path d="M653.979 36.2222L614.071 129.216H591.59L551.683 36.2222H574.338L603.266 105.184L633.066 36.2222H653.979Z" fill="white"/>
<path d="M709.305 111.975C719.413 111.975 727.836 108.609 734.574 101.875L746.076 115.284C742.01 120.276 736.782 124.05 730.392 126.604C724.002 129.158 716.799 130.435 708.783 130.435C698.559 130.435 689.555 128.403 681.771 124.34C673.987 120.276 667.945 114.646 663.647 107.448C659.464 100.134 657.373 91.8907 657.373 82.719C657.373 73.6635 659.406 65.5367 663.472 58.3387C667.655 51.0246 673.348 45.3358 680.551 41.2724C687.87 37.209 696.119 35.1774 705.297 35.1774C714.011 35.1774 721.911 37.093 728.998 40.9241C736.201 44.6392 741.894 50.0378 746.076 57.1197C750.259 64.0855 752.35 72.2703 752.35 81.6741L681.074 95.6058C683.281 100.946 686.825 105.01 691.704 107.796C696.584 110.582 702.451 111.975 709.305 111.975ZM705.297 52.5919C697.281 52.5919 690.775 55.2041 685.779 60.4284C680.899 65.6528 678.46 72.6766 678.46 81.5V81.6741L731.089 71.5737C729.579 65.885 726.5 61.2991 721.853 57.8162C717.322 54.3333 711.803 52.5919 705.297 52.5919Z" fill="white"/>
<path d="M803.95 130.435C794.307 130.435 786.756 127.823 781.295 122.598C775.951 117.258 773.279 109.77 773.279 100.134V0H795.062V98.5662C795.062 107.854 799.419 112.498 808.133 112.498C811.037 112.498 813.651 111.917 815.975 110.756L817.02 128.171C812.954 129.68 808.597 130.435 803.95 130.435Z" fill="white"/>
<path d="M871.945 130.435C862.535 130.435 854.054 128.403 846.502 124.34C838.95 120.276 833.025 114.646 828.726 107.448C824.544 100.134 822.453 91.8907 822.453 82.719C822.453 73.5474 824.544 65.3625 828.726 58.1645C833.025 50.9665 838.95 45.3358 846.502 41.2724C854.054 37.209 862.535 35.1774 871.945 35.1774C881.472 35.1774 890.011 37.209 897.563 41.2724C905.115 45.3358 910.982 50.9665 915.164 58.1645C919.463 65.3625 921.612 73.5474 921.612 82.719C921.612 91.8907 919.463 100.134 915.164 107.448C910.982 114.646 905.115 120.276 897.563 124.34C890.011 128.403 881.472 130.435 871.945 130.435ZM871.945 111.801C879.962 111.801 886.584 109.131 891.812 103.791C897.04 98.4501 899.654 91.4263 899.654 82.719C899.654 74.0118 897.04 66.9879 891.812 61.6474C886.584 56.307 879.962 53.6368 871.945 53.6368C863.929 53.6368 857.307 56.307 852.079 61.6474C846.967 66.9879 844.411 74.0118 844.411 82.719C844.411 91.4263 846.967 98.4501 852.079 103.791C857.307 109.131 863.929 111.801 871.945 111.801Z" fill="white"/>
<path d="M994.027 35.1774C1003.09 35.1774 1011.16 37.151 1018.25 41.0983C1025.45 45.0456 1031.09 50.6182 1035.15 57.8162C1039.22 65.0142 1041.25 73.3152 1041.25 82.719C1041.25 92.1229 1039.22 100.482 1035.15 107.796C1031.09 114.994 1025.45 120.567 1018.25 124.514C1011.16 128.461 1003.09 130.435 994.027 130.435C981.479 130.435 971.546 126.255 964.227 117.896V163H942.443V36.2222H963.181V48.4124C966.782 44.0007 971.197 40.692 976.425 38.4861C981.77 36.2803 987.637 35.1774 994.027 35.1774ZM991.587 111.801C999.603 111.801 1006.17 109.131 1011.28 103.791C1016.51 98.4501 1019.12 91.4263 1019.12 82.719C1019.12 74.0118 1016.51 66.9879 1011.28 61.6474C1006.17 56.307 999.603 53.6368 991.587 53.6368C986.359 53.6368 981.653 54.8558 977.471 57.2938C973.289 59.6157 969.977 62.9826 967.538 67.3942C965.098 71.8059 963.878 76.9142 963.878 82.719C963.878 88.5239 965.098 93.6321 967.538 98.0438C969.977 102.455 973.289 105.88 977.471 108.318C981.653 110.64 986.359 111.801 991.587 111.801Z" fill="white"/>
<path d="M1106.18 111.975C1116.28 111.975 1124.71 108.609 1131.45 101.875L1142.95 115.284C1138.88 120.276 1133.65 124.05 1127.26 126.604C1120.87 129.158 1113.67 130.435 1105.65 130.435C1095.43 130.435 1086.43 128.403 1078.64 124.34C1070.86 120.276 1064.82 114.646 1060.52 107.448C1056.34 100.134 1054.24 91.8907 1054.24 82.719C1054.24 73.6635 1056.28 65.5367 1060.34 58.3387C1064.53 51.0246 1070.22 45.3358 1077.42 41.2724C1084.74 37.209 1092.99 35.1774 1102.17 35.1774C1110.88 35.1774 1118.78 37.093 1125.87 40.9241C1133.07 44.6392 1138.77 50.0378 1142.95 57.1197C1147.13 64.0855 1149.22 72.2703 1149.22 81.6741L1077.95 95.6058C1080.15 100.946 1083.7 105.01 1088.58 107.796C1093.46 110.582 1099.32 111.975 1106.18 111.975ZM1102.17 52.5919C1094.15 52.5919 1087.65 55.2041 1082.65 60.4284C1077.77 65.6528 1075.33 72.6766 1075.33 81.5V81.6741L1127.96 71.5737C1126.45 65.885 1123.37 61.2991 1118.72 57.8162C1114.19 54.3333 1108.68 52.5919 1102.17 52.5919Z" fill="white"/>
<path d="M1190.89 49.8056C1197.16 40.0534 1208.2 35.1774 1224 35.1774V55.9006C1222.14 55.5524 1220.46 55.3782 1218.95 55.3782C1210.47 55.3782 1203.84 57.8743 1199.08 62.8665C1194.32 67.7425 1191.93 74.8244 1191.93 84.1122V129.216H1170.15V36.2222H1190.89V49.8056Z" fill="white"/>
<circle cx="253.5" cy="79.5" r="21.5" fill="#7C6DFF"/>
</svg>
