<?xml version="1.0" encoding="iso-8859-1"?>
<!-- Uploaded to: SVG Repo, www.svgrepo.com, Generator: SVG Repo Mixer Tools -->
<svg version="1.1" id="Layer_1" xmlns="http://www.w3.org/2000/svg" xmlns:xlink="http://www.w3.org/1999/xlink" 
	 viewBox="0 0 512 512" xml:space="preserve">
<rect x="225.031" y="19.866" transform="matrix(-0.7071 -0.7071 0.7071 -0.7071 308.8203 596.154)" style="fill:#FFBA57;" width="105.693" height="428.505"/>
<polygon style="fill:#E6E6E6;" points="30.211,450.505 61.496,481.789 163.75,422.985 89.015,348.25 "/>
<rect x="18.733" y="460.863" transform="matrix(-0.7071 -0.7071 0.7071 -0.7071 -282.116 840.9244)" style="fill:#B3B3B3;" width="28.741" height="36.054"/>
<rect x="314.691" y="91.403" transform="matrix(-0.7071 -0.7071 0.7071 -0.7071 577.7177 454.059)" style="fill:#E6E6E6;" width="136.413" height="31.954"/>
<rect x="434.531" y="14.781" transform="matrix(-0.7071 -0.7071 0.7071 -0.7071 742.4036 416.5487)" style="fill:#E8655A;" width="45.882" height="79.473"/>
<g>
	<path style="fill:#603813;" d="M211.867,167.522c-3.983,3.983-3.983,10.441,0,14.425c1.992,1.992,4.602,2.987,7.212,2.987
		c2.61,0,5.22-0.995,7.212-2.987l97.071-97.07l7.301,7.301L81.803,341.038c0,0-0.011,0.017-0.034,0.051
		c-0.611,0.617-1.154,1.308-1.596,2.077L21.37,445.42c-1.879,3.268-1.773,7.232,0.109,10.351L2.987,474.264
		C1.075,476.176,0,478.771,0,481.476c0,2.705,1.075,5.3,2.987,7.212l20.326,20.325c1.992,1.992,4.602,2.987,7.212,2.987
		s5.22-0.996,7.212-2.987l18.498-18.498c1.603,0.967,3.424,1.475,5.264,1.475c1.741,0,3.494-0.445,5.081-1.358l102.255-58.805
		c0.77-0.443,1.461-0.987,2.079-1.598c0.03-0.019,0.049-0.032,0.049-0.032l302.999-302.999c3.983-3.983,3.983-10.441,0-14.425
		L460.028,98.84l48.985-48.985c3.983-3.983,3.983-10.441,0-14.424L476.569,2.987C474.657,1.075,472.063,0,469.357,0
		c-2.706,0-5.298,1.075-7.212,2.987L413.16,51.972l-13.934-13.934c-3.982-3.982-10.438-3.983-14.425,0l-17.119,17.12l-14.512-14.512
		c-1.913-1.912-4.507-2.987-7.212-2.987s-5.298,1.075-7.212,2.987L211.867,167.522z M392.014,59.674l60.312,60.312l-9.909,9.909
		l-60.312-60.312L392.014,59.674z M345.956,62.281l82.037,82.038l-8.171,8.171l-82.037-82.037L345.956,62.281z M405.399,166.913
		L163.751,408.561l-60.312-60.312l241.648-241.648L405.399,166.913z M30.525,487.377l-5.901-5.901l11.067-11.068l5.901,5.901
		L30.525,487.377z M147.124,420.781l-83.939,48.272l-20.237-20.236l48.271-83.939L147.124,420.781z M427.584,66.396l41.773-41.773
		l18.019,18.02l-41.773,41.773L427.584,66.396z"/>
	<path style="fill:#603813;" d="M157.003,385.299c1.992,1.992,4.602,2.987,7.212,2.987c2.61,0,5.22-0.995,7.212-2.987l79.871-79.871
		c3.983-3.983,3.983-10.441,0-14.425c-3.984-3.983-10.44-3.983-14.425,0l-79.871,79.871
		C153.019,374.858,153.019,381.317,157.003,385.299z"/>
	<path style="fill:#603813;" d="M266.402,286.098c2.61,0,5.22-0.995,7.211-2.986l2.674-2.674c3.983-3.983,3.984-10.441,0.001-14.424
		c-3.981-3.983-10.44-3.984-14.424-0.001l-2.674,2.674c-3.983,3.983-3.984,10.441-0.001,14.424
		C261.181,285.101,263.792,286.098,266.402,286.098z"/>
</g>
</svg>